<?xml version="1.0" encoding="utf-8"?>
<svg fill="#1b676b" version="1.1" id="Capa_1" xmlns="http://www.w3.org/2000/svg" xmlns:xlink="http://www.w3.org/1999/xlink" 
	 width="800px" height="800px" viewBox="0 0 188.629 188.629"
	 xml:space="preserve">
<g>
	<path d="M169.984,21.821C151.812,7.852,125.596,4.992,103.477,5.389C66.47,6.053,1.691,26.068,18.661,75.271
		c-5.227,2.977-10.337,8.343-10.975,13.723c-4.211,4.606-7.196,11.512-7.566,15.497c-0.523,5.642,0.702,10.513,2.924,14.021
		c-3.42,8.767-0.248,21.58,6.119,26.418c0.834,8.851,8.425,18.879,20.531,15.312c0.659-0.194,1.124-0.612,1.45-1.114
		c0.902,5.177,2.447,10.126,5.14,14.076c4.608,6.758,16.033,5.626,22.944,6.004c13.577,0.744,27.11,2.349,40.688,3.171
		c15.45,0.936,30.979,1.313,46.431,0.26c8.6-0.588,21.402-1.238,27.949-7.787c17.885-17.885-3.271-60.647-4.368-81.336
		c-0.056-1.058-0.491-1.844-1.079-2.446c-0.273-0.939-1.014-1.775-1.977-2.11c-2.835-0.987-5.867-0.277-8.843-0.972
		c-4.332-1.011-8.141-3.871-11.348-6.811c-6.132-5.622-9.848-13.078-11.354-21.168c-0.37-1.981-2.473-1.941-3.613-0.842
		c-0.62-1.086-1.803-1.782-3.287-1.261c-2.623,0.922-4.97,1.178-7.542,0.562c-1.546-1.815-5.202-0.619-5.379,2.128
		c-0.433,6.742-2.675,13-10.428,13.481c-6.969,0.432-10.297-5.38-9.911-11.652c0.07-1.141-0.706-1.834-1.619-2.054
		c-0.149-1.431-1.381-2.749-3.084-2.195c-3.947,1.286-8.062,0.809-12.136,0.885c-1.175,0.022-2.003,0.537-2.542,1.254
		c-0.671,0.133-1.241,0.598-1.398,1.527c-1.545,9.132-6.443,16.863-13.839,22.465c-3.152,2.388-6.74,4.066-10.547,5.081
		c-3.423,0.913-6.656-0.186-10.083-0.226c-1.921-0.023-3.141,2.162-2.182,3.802c0.062,0.106,0.141,0.183,0.205,0.284
		c-1.777,0.278-3.122,1.912-2.616,3.883c1.485,5.786-2.513,14.916-3.458,20.871c-1.158,7.295-1.547,14.707-1.775,22.079
		c-0.142,4.594-0.098,9.861,0.48,15.078c-0.428-0.307-0.952-0.506-1.629-0.439c-7.302,0.724-11.637-3.762-12.827-7.99
		c3.102-0.588,6.51-2.93,10.035-7.741c1.284-1.753-0.153-3.954-1.865-4.585c-7.637-2.815-12.177-0.6-14.105,3.533
		c-1.438-2.162-2.362-5.379-2.677-8.652c-0.215-2.237-0.062-4.291,0.432-6.078c5.089,2.688,11.619,0.88,16.442-7.962
		c0.961-1.763,0.146-4.17-1.903-4.679c-6.7-1.661-11.551-0.7-14.886,1.763c-1.968-5.837-1.239-11.362,2.141-16.578
		c0.895,1.079,2.055,2.114,3.614,3.067c7.698,4.703,15.055-6.358,8.737-12.001c-1.916-1.711-3.843-2.447-5.719-2.484
		c1.059-2.785,2.961-4.933,5.747-6.415c0.533-0.085,1.033-0.314,1.44-0.655c0.229-0.095,0.449-0.196,0.679-0.29
		c0.304,0.079,0.617,0.12,0.933,0.128c27.816,8.319,35.903-23.618,55.13-38.004c35.459-26.533,64.256,25.108,95.855,32.248
		c1.917,0.433,3.312-0.586,3.979-1.954c1.076,1.682,3.829,2.046,4.974-0.005C194.518,52.501,183.58,32.272,169.984,21.821z
		 M150.754,139.847c0.298,2.629,0.558,5.264,0.837,7.895c-0.168-0.799-0.562-1.549-1.123-2.137
		C150.552,143.685,150.643,141.765,150.754,139.847z M136.767,148.499c-0.002,1.077-0.041,2.154-0.034,3.232
		c-0.748,0.588-1.486,1.192-2.225,1.793C135.364,151.915,136.119,150.236,136.767,148.499z M117.479,78.369
		c0.039-0.006,0.081-0.002,0.12-0.009c0.05-0.009,0.091-0.036,0.139-0.046c0.035,1.185,0.581,2.237,1.52,2.992
		c0.324,0.373,0.7,0.696,1.147,0.92c-0.003-0.001-0.007-0.001-0.01-0.001l0,0h-0.002c-0.884-0.135-1.763-0.207-2.645-0.323
		c0.118-0.312,0.197-0.681,0.18-1.185c-0.018-0.552-0.421-0.928-0.885-1.085C117.131,79.22,117.3,78.791,117.479,78.369z
		 M75.118,131.577c0.952-18.327,13.741-30.748,30.13-35.29c0.37,0.295,0.829,0.536,1.39,0.698
		c16.49,4.76,26.006,16.242,26.157,33.631c0.129,14.847-9.009,28.855-23.728,32.234C88.771,167.513,74.142,150.337,75.118,131.577z
		 M43.324,149.326c0.159-1.008,0.309-2.009,0.46-3.011c-0.11,0.955-0.174,1.912-0.303,2.867c-0.002,0.015,0.005,0.027,0.003,0.043
		c-0.045,0.332-0.098,0.66-0.142,0.992h0.202c0.116,1.059,0.615,1.934,1.302,2.579c-0.358,0.249-0.65,0.562-0.898,0.906
		c-0.284-0.565-0.566-1.133-0.846-1.688c-0.184-0.365-0.425-0.615-0.663-0.867C42.873,150.735,43.195,150.14,43.324,149.326z
		 M37.682,131.046c0.132,1.139,0.368,2.262,0.668,3.371c-0.404,2.566-0.765,5.143-1.114,7.716
		C37.243,138.419,37.417,134.71,37.682,131.046z M37.292,70.99c0.738-0.548,1.448-1.11,2.14-1.68c0.693,0.14,1.435,0.069,2.15-0.385
		c3.071-1.948,5.958-3.949,8.672-6.078C46.529,66.643,42.42,69.567,37.292,70.99z M142.73,18.077
		c-2.266-0.806-4.541-1.56-6.833-2.247c0.092-0.097,0.177-0.192,0.257-0.298c2.387,0.53,4.748,1.145,7.085,1.839
		C143.047,17.587,142.879,17.824,142.73,18.077z M175.34,38.858c-0.187-0.443-0.438-0.884-0.806-1.307
		c-4.965-5.724-10.695-10.34-16.805-14.544c0.361,0.179,0.741,0.321,1.101,0.505c6.932,3.553,12.896,8.584,17.138,15.072
		C175.745,38.65,175.549,38.757,175.34,38.858z M179.726,65.523c-0.409-0.455-0.925-0.847-1.687-1.041
		c-0.31-0.079-0.609-0.178-0.915-0.262c1.245-0.764,2.172-2.166,2.252-3.622c0.044-0.791,0.125-1.576,0.189-2.364
		c0.249-0.175,0.451-0.392,0.652-0.627C180.063,60.197,179.826,62.823,179.726,65.523z"/>
</g>
</svg>