<?xml version="1.0" encoding="utf-8"?>

<!-- Uploaded to: SVG Repo, www.svgrepo.com, Generator: SVG Repo Mixer Tools -->
<svg width="800px" height="800px" viewBox="-11.3 0 209.43 209.43" xmlns="http://www.w3.org/2000/svg">

<defs>

<style>.cls-1{fill:#ffffff;}</style>

</defs>

<g id="Layer_2" data-name="Layer 2">

<g id="Layer_1-2" data-name="Layer 1">

<path d="M2.77,58.54c1.83-1.69,2.94-2.6,3.91-3.65,21.59-23.37,48.39-39,77.1-51.8,1.56-.69,3.21-1.21,4.8-1.86A15,15,0,0,1,99.38.81a210.83,210.83,0,0,1,29.3,12.07c14.61,7.29,28.95,15,41.88,25.12,5.84,4.57,9.94,9.92,11,17.49,1.27,9.05,3,18,4.43,27.06a32.56,32.56,0,0,1,.43,5.12q0,24.45-.11,48.9c0,.57-.29,1.21-.12,1.7,2.12,6.39-1.36,10.93-4.92,15.52-7.08,9.14-16.1,16.26-24.76,23.72-9.09,7.85-18.49,15.34-27.78,23-2,1.64-4,3.21-6.1,4.73a21.08,21.08,0,0,1-17,3.84c-18.08-3.14-35.86-7.26-53-14-5-2-10.14-3.9-15.27-5.69-8.42-2.95-15.93-7.68-23.74-11.84C6.45,173.65,2.55,168,2.44,159.62c-.11-7.72-.76-15.43-1.13-23.15-.48-10-1.09-20-1.29-30-.13-6.27.38-12.55.65-18.83.07-1.71.3-3.42.42-5.13C1.66,74.52,2.21,66.55,2.77,58.54Zm7.31,6.07C9.52,67.78,8.94,70,8.77,72.26,8.2,79.39,7.4,86.53,7.4,93.67c0,8.85.71,17.71,1.08,26.57.57,13.74,1.22,27.48,1.6,41.23.11,3.89,1.53,6.61,4.91,8.33,6.38,3.23,12.65,6.71,19.21,9.55,6,2.61,12.35,4.54,18.56,6.72,7.56,2.65,14.93,6,23,6.92a66.74,66.74,0,0,1,17.37,4.55c4.19,1.69,8.58,3.23,13.83,2.27.1-2.27.34-4.49.29-6.7-.34-15.46-.8-30.93-1.1-46.39-.17-9.17,0-18.35-.23-27.51-.11-5.41.2-10.88-1.57-16.73-7-.39-12.66-4.45-18.64-7.75-3-1.66-6-3.38-9-5C60.52,80.86,42.92,75.6,25.63,69.55,20.78,67.86,15.84,66.43,10.08,64.61Zm155.4-19.06a55.61,55.61,0,0,0-5.36-4.68A340.84,340.84,0,0,0,105,11.53c-6.87-2.89-13-2.75-19.78-.07C68.88,17.86,54,26.73,39.82,36.91A162.64,162.64,0,0,0,19.3,53.77C18,55.06,16,56.31,17.16,58.87a15.18,15.18,0,0,0,2.31.9c14,3.1,27.35,8.29,40.77,13.18,7,2.54,13.64,5.86,20.35,9,9.24,4.39,17.81,10.16,27.9,13.57ZM113,102.44c-.12,1.64-.3,2.78-.27,3.92q.69,31.33,1.43,62.67.28,11.17.78,22.33c.12,2.43.11,5,2.32,7.14a21.91,21.91,0,0,0,3.15-1.84c12.06-10.13,24.19-20.18,36.08-30.51,4.74-4.12,9.25-8.45,14.27-12.32,5.17-4,9.82-8.86,7.67-16.71-.57-2.09.23-4.54.34-6.83.24-5.15.61-10.29.6-15.44,0-8.31-.25-16.61-.49-24.91a132.4,132.4,0,0,0-6.32-37.6,50.59,50.59,0,0,0-5.29,3.27c-8.9,7.21-17.73,14.51-26.58,21.78a19.45,19.45,0,0,0-1.86,1.77,135.23,135.23,0,0,1-19.76,17.73A62,62,0,0,0,113,102.44Z"/>

<path class="cls-1" d="M10.08,64.61c5.76,1.82,10.7,3.25,15.55,4.94,17.29,6,34.89,11.31,51.07,20.15,3,1.65,6,3.37,9,5,6,3.3,11.62,7.36,18.64,7.75,1.77,5.85,1.46,11.32,1.57,16.73.19,9.16.06,18.34.23,27.51.3,15.46.76,30.93,1.1,46.39.05,2.21-.19,4.43-.29,6.7-5.25,1-9.64-.58-13.83-2.27A66.74,66.74,0,0,0,75.75,193c-8.06-1-15.43-4.27-23-6.92-6.21-2.18-12.54-4.11-18.56-6.72C27.64,176.51,21.37,173,15,169.8c-3.38-1.72-4.8-4.44-4.91-8.33-.38-13.75-1-27.49-1.6-41.23-.37-8.86-1.09-17.72-1.08-26.57,0-7.14.8-14.28,1.37-21.41C8.94,70,9.52,67.78,10.08,64.61ZM29.31,81.23c-4.82-.08-7.81,1.23-9.57,4.64a23.9,23.9,0,0,0-2.41,5.44c-2.4,10.64,1.85,16,11.69,17.74,7.6,1.31,12.6-3,13.17-10.76a19.52,19.52,0,0,0-1.94-9.06A12.71,12.71,0,0,0,29.31,81.23ZM86.72,132c1.14-.14,2.56-.22,4-.51,4.39-.91,6.46-3.24,6.12-7.8-.74-9.74-3.91-13.83-11.49-17.35-3-1.37-5.23-.43-7.4,2.14-2.94,3.48-3.8,7.57-3.82,11.91,0,7.41,2.55,10.35,9.81,11.31C84.74,131.76,85.59,131.83,86.72,132ZM40.25,154.68c.15-6-5-12.64-10.83-14.26-7.11-2-12.39,1.76-13,9.19a28.71,28.71,0,0,0,0,4.25c.59,8.36,6.8,13.4,15.06,12.19,2.91-.43,5.63-1.53,6.82-4.41A50.25,50.25,0,0,0,40.25,154.68Zm57.35,19.7c-.16-6.21-6.72-13.94-13.06-15.25a5.4,5.4,0,0,0-3.34.19c-6.1,3.13-8.82,6-8.46,12.4.4,7.33,3.51,10.63,11.05,11.67a22.57,22.57,0,0,0,5.92.07C95.4,182.72,97.75,179.92,97.6,174.38Z"/>

<path class="cls-1" d="M165.48,45.55l-57,50C98.4,92.16,89.83,86.39,80.59,82c-6.71-3.19-13.39-6.51-20.35-9C46.82,68.06,33.47,62.87,19.47,59.77a15.18,15.18,0,0,1-2.31-.9c-1.12-2.56.85-3.81,2.14-5.1A162.64,162.64,0,0,1,39.82,36.91c14.2-10.18,29.06-19,45.4-25.45,6.83-2.68,12.91-2.82,19.78.07a340.84,340.84,0,0,1,55.12,29.34A55.61,55.61,0,0,1,165.48,45.55ZM91,37.37c-4.45-1.1-7.86,2.51-10.15,7.55-3.71,8.15.4,16.55,9,18.71,6.87,1.73,11.67-.58,15.84-6.9,3.06-4.65,2.47-8.86.4-13.68-2-4.67-6-4.66-9.8-5.41A48.45,48.45,0,0,0,91,37.37Z"/>

<path class="cls-1" d="M113,102.44a62,62,0,0,1,6.07-5.55,135.23,135.23,0,0,0,19.76-17.73,19.45,19.45,0,0,1,1.86-1.77c8.85-7.27,17.68-14.57,26.58-21.78a50.59,50.59,0,0,1,5.29-3.27,132.4,132.4,0,0,1,6.32,37.6c.24,8.3.47,16.6.49,24.91,0,5.15-.36,10.29-.6,15.44-.11,2.29-.91,4.74-.34,6.83,2.15,7.85-2.5,12.73-7.67,16.71-5,3.87-9.53,8.2-14.27,12.32-11.89,10.33-24,20.38-36.08,30.51a21.91,21.91,0,0,1-3.15,1.84c-2.21-2.11-2.2-4.71-2.32-7.14q-.51-11.16-.78-22.33-.76-31.34-1.43-62.67C112.7,105.22,112.88,104.08,113,102.44Zm5.68,58.12c.16,1.31.41,3,.57,4.69.36,3.79,2.24,6.44,5.89,7.56,4.55,1.39,9.51,1.78,12.87-1.85,8-8.69,4-21.19-4.65-25.37-3.29-1.59-6.59-.67-9.24,2.21C120.9,151.3,119.52,155.59,118.68,160.56ZM149.29,80.8c.08,7.65,5.24,13.39,11.7,13.86a5.91,5.91,0,0,0,4.5-1.8,36.34,36.34,0,0,0,5.12-8.78c1.95-5.08-1.67-12.08-6.79-14-4.8-1.85-11.27,1.06-13.45,6.26A21.92,21.92,0,0,0,149.29,80.8Z"/>

<path d="M29.31,81.23a12.71,12.71,0,0,1,10.94,8,19.52,19.52,0,0,1,1.94,9.06c-.57,7.76-5.57,12.07-13.17,10.76-9.84-1.69-14.09-7.1-11.69-17.74a23.9,23.9,0,0,1,2.41-5.44C21.5,82.46,24.49,81.15,29.31,81.23Zm5.25,15.94c-1.54-2.48-2.69-4.69-4.18-6.63-.94-1.2-3.59-.94-4.65.12a6.13,6.13,0,0,0-1.12,7,5.18,5.18,0,0,0,6.27,3C32.19,100.22,33.1,98.61,34.56,97.17Z"/>

<path d="M86.72,132c-1.13-.12-2-.19-2.83-.3-7.26-1-9.86-3.9-9.81-11.31,0-4.34.88-8.43,3.82-11.91,2.17-2.57,4.45-3.51,7.4-2.14,7.58,3.52,10.75,7.61,11.49,17.35.34,4.56-1.73,6.89-6.12,7.8C89.28,131.73,87.86,131.81,86.72,132Zm-4.91-14.12c0,.66-.19,1.32,0,1.75.6,1.15,1.15,2.69,2.15,3.15a4,4,0,0,0,3.68-.51c.72-.74.75-2.55.47-3.74a10,10,0,0,0-2.09-3.5,2.16,2.16,0,0,0-3.46.6C82.29,116.34,82.05,117.13,81.81,117.83Z"/>

<path d="M40.25,154.68a50.25,50.25,0,0,1-1.88,7c-1.19,2.88-3.91,4-6.82,4.41-8.26,1.21-14.47-3.83-15.06-12.19a28.71,28.71,0,0,1,0-4.25c.56-7.43,5.84-11.17,13-9.19C35.22,142,40.4,148.65,40.25,154.68Zm-13.17-7.57a6.15,6.15,0,0,0-2,1c-2.79,3.09-1.66,8.5,2.18,9.78a4.65,4.65,0,0,0,3.72-1c1.66-1.38,1.65-3.52,1.06-5.47A6.2,6.2,0,0,0,27.08,147.11Z"/>

<path d="M97.6,174.38c.15,5.54-2.2,8.34-7.89,9.08a22.57,22.57,0,0,1-5.92-.07c-7.54-1-10.65-4.34-11.05-11.67-.36-6.39,2.36-9.27,8.46-12.4a5.4,5.4,0,0,1,3.34-.19C90.88,160.44,97.44,168.17,97.6,174.38Zm-14.74-8.1a10.92,10.92,0,0,0-2.08,2.31c-1.9,4,.25,7.27,4.69,7.31a3.48,3.48,0,0,0,3.32-5.15A7.73,7.73,0,0,0,82.86,166.28Z"/>

<path d="M91,37.37a48.45,48.45,0,0,1,5.24.27c3.81.75,7.78.74,9.8,5.41,2.07,4.82,2.66,9-.4,13.68-4.17,6.32-9,8.63-15.84,6.9-8.55-2.16-12.66-10.56-9-18.71C83.18,39.88,86.59,36.27,91,37.37Zm.07,6.6a27.86,27.86,0,0,0-2.45,3.26,11.93,11.93,0,0,0-1.13,3.23c-.39,1.82,1,4.4,2.83,4.72a14.16,14.16,0,0,0,5.07,0c2.37-.48,4-3,4.06-5.94.07-2.46-1.58-3.46-3.69-4C94.43,44.92,93.08,44.52,91.11,44Z"/>

<path d="M118.68,160.56c.84-5,2.22-9.26,5.44-12.76,2.65-2.88,5.95-3.8,9.24-2.21C142,149.77,146.05,162.27,138,171c-3.36,3.63-8.32,3.24-12.87,1.85-3.65-1.12-5.53-3.77-5.89-7.56C119.09,163.56,118.84,161.87,118.68,160.56Zm12.75-6.44a10.19,10.19,0,0,0-2.42,1.12,7.53,7.53,0,0,0-2.27,8.4,2.52,2.52,0,0,0,3.26,1.82c3.46-.81,5.93-6.41,4.1-9.5C133.6,155.12,132.34,154.72,131.43,154.12Z"/>

<path d="M149.29,80.8a21.92,21.92,0,0,1,1.08-4.51c2.18-5.2,8.65-8.11,13.45-6.26,5.12,2,8.74,9,6.79,14a36.34,36.34,0,0,1-5.12,8.78,5.91,5.91,0,0,1-4.5,1.8C154.53,94.19,149.37,88.45,149.29,80.8Zm13.78.23c0-.22.2-.89,0-1.31-.51-.88-1.14-2.1-1.94-2.29a3.63,3.63,0,0,0-2.85,1.08,5.58,5.58,0,0,0-1.21,3c-.28,2.08,1.43,4.4,3.07,4.25,2.07-.19,2.46-1.92,2.82-3.57C163,81.93,163,81.64,163.07,81Z"/>

<path class="cls-1" d="M34.56,97.17c-1.46,1.44-2.37,3-3.68,3.49a5.18,5.18,0,0,1-6.27-3,6.13,6.13,0,0,1,1.12-7c1.06-1.06,3.71-1.32,4.65-.12C31.87,92.48,33,94.69,34.56,97.17Z"/>

<path class="cls-1" d="M81.81,117.83c.24-.7.48-1.49.79-2.25a2.16,2.16,0,0,1,3.46-.6,10,10,0,0,1,2.09,3.5c.28,1.19.25,3-.47,3.74a4,4,0,0,1-3.68.51c-1-.46-1.55-2-2.15-3.15C81.62,119.15,81.81,118.49,81.81,117.83Z"/>

<path class="cls-1" d="M27.08,147.11a6.2,6.2,0,0,1,5,4.36c.59,1.95.6,4.09-1.06,5.47a4.65,4.65,0,0,1-3.72,1c-3.84-1.28-5-6.69-2.18-9.78A6.15,6.15,0,0,1,27.08,147.11Z"/>

<path class="cls-1" d="M82.86,166.28a7.73,7.73,0,0,1,5.93,4.47,3.48,3.48,0,0,1-3.32,5.15c-4.44,0-6.59-3.32-4.69-7.31A10.92,10.92,0,0,1,82.86,166.28Z"/>

<path class="cls-1" d="M91.11,44c2,.55,3.32,1,4.69,1.3,2.11.54,3.76,1.54,3.69,4-.09,2.94-1.69,5.46-4.06,5.94a14.16,14.16,0,0,1-5.07,0c-1.78-.32-3.22-2.9-2.83-4.72a11.93,11.93,0,0,1,1.13-3.23A27.86,27.86,0,0,1,91.11,44Z"/>

<path class="cls-1" d="M131.43,154.12c.91.6,2.17,1,2.67,1.84,1.83,3.09-.64,8.69-4.1,9.5a2.52,2.52,0,0,1-3.26-1.82,7.53,7.53,0,0,1,2.27-8.4A10.19,10.19,0,0,1,131.43,154.12Z"/>

<path class="cls-1" d="M163.07,81c-.08.61-.09.9-.15,1.17-.36,1.65-.75,3.38-2.82,3.57-1.64.15-3.35-2.17-3.07-4.25a5.58,5.58,0,0,1,1.21-3,3.63,3.63,0,0,1,2.85-1.08c.8.19,1.43,1.41,1.94,2.29C163.27,80.14,163.07,80.81,163.07,81Z"/>

</g>

</g>

</svg>