<?xml version="1.0" encoding="UTF-8"?>
<svg color="#fff" width="470px" height="470px" viewBox="0 0 470 470" version="1.1" xmlns="http://www.w3.org/2000/svg">
    <!-- Generator: Sketch 53 (72520) - https://sketchapp.com -->
    <title>Group</title>
    <desc>Created with Sketch.</desc>
    <g id="Page-1" stroke="none" stroke-width="1" fill="none" fill-rule="evenodd">
        <g id="Desktop-HD" transform="translate(-511.000000, -290.000000)">
            <g id="Group" transform="translate(511.000000, 290.000000)">
                <rect class="to-fill" id="Rectangle" fill="#220BAB" x="0" y="0" width="470" height="470" rx="20"></rect>
                <text class="to-color" id="exchange-your-tokens" font-family="AvenirNext-Bold, Avenir Next" font-size="40" font-weight="bold" line-spacing="50" fill="currentColor">
                    <tspan x="115" y="291">Exchange</tspan>
                    <tspan x="115" y="341">your</tspan>
                    <tspan x="115" y="391">tokens</tspan>
                </text>
                <text class="to-color" id="buy" font-family="AvenirNext-Medium, Avenir Next" font-size="18" font-weight="400" fill="currentColor">
                    <tspan x="314" y="441">Buy</tspan>
                </text>
                <g class="to-color" id="arrow-right" transform="translate(423.000000, 428.000000)" stroke="currentColor" stroke-linecap="round" stroke-linejoin="round" stroke-width="2">
                    <path d="M0,8 L16,8" id="Path"></path>
                    <polyline id="Path" points="8 0 16 8 8 16"></polyline>
                </g>
                <g class="to-color" id="ico" transform="translate(153.000000, 53.000000)" fill="currentColor" fill-rule="nonzero">
                    <path d="M28,56C12.561,56,0,43.439,0,28S12.561,0,28,0c15.439,0,28,12.561,28,28S43.439,56,28,56z M28,2C13.664,2,2,13.664,2,28   s11.664,26,26,26s26-11.664,26-26S42.336,2,28,2z" />
                    <path d="M47.594,19c-0.363,0-0.714-0.198-0.891-0.544C43.082,11.39,35.916,7,28,7S12.918,11.39,9.297,18.456   c-0.252,0.492-0.855,0.685-1.346,0.434c-0.491-0.252-0.686-0.854-0.434-1.346C11.482,9.807,19.331,5,28,5   s16.518,4.807,20.483,12.544c0.251,0.492,0.058,1.094-0.434,1.346C47.903,18.965,47.748,19,47.594,19z" />
                    <path d="M28,51c-3.276,0-6.442-0.678-9.41-2.014c-0.504-0.227-0.728-0.818-0.501-1.322c0.227-0.503,0.819-0.728,1.322-0.501   C22.119,48.382,25.009,49,28,49c3.048,0,5.991-0.642,8.744-1.908c0.502-0.229,1.096-0.01,1.327,0.491   c0.23,0.502,0.011,1.096-0.491,1.327C34.562,50.296,31.339,51,28,51z" />
                    <path d="M28,60C12.561,60,0,47.439,0,32c0-0.628,0.027-1.287,0.084-2.073C0.122,29.404,0.557,29,1.082,29   c0.524,0,0.959,0.404,0.997,0.927C3.069,43.426,14.454,54,28,54c13.545,0,24.931-10.574,25.921-24.073   C53.959,29.404,54.395,29,54.918,29l0,0c0.524,0,0.959,0.404,0.998,0.927C55.973,30.713,56,31.372,56,32C56,47.439,43.439,60,28,60   z M4.597,43.323C8.813,52.003,17.719,58,28,58s19.187-5.998,23.403-14.678C46.367,50.968,37.698,56,28,56   C18.303,56,9.633,50.967,4.597,43.323z" />
                    <path d="M38.92,45c-0.346,0-0.682-0.179-0.867-0.5c-0.276-0.478-0.112-1.09,0.366-1.366c4.332-2.501,7.022-7.15,7.022-12.134   c0-3.053-0.969-5.957-2.803-8.395c-0.332-0.441-0.243-1.068,0.198-1.4c0.442-0.331,1.068-0.242,1.4,0.198   c2.097,2.788,3.205,6.107,3.205,9.597c0,5.695-3.074,11.009-8.022,13.866C39.262,44.957,39.089,45,38.92,45z" />
                    <path d="M42.085,41.599c-1.45,0-2.725-0.492-3.663-1.43c-1.167-1.167-1.643-2.855-1.341-4.753c0.068-0.427,0.403-0.762,0.831-0.831   c1.898-0.3,3.586,0.174,4.753,1.341s1.643,2.855,1.341,4.753c-0.068,0.427-0.403,0.762-0.831,0.831   C42.803,41.569,42.439,41.599,42.085,41.599z M43.019,40.522h0.01H43.019z M38.994,36.498c0,0.919,0.29,1.704,0.843,2.257   s1.338,0.843,2.257,0.843c0-0.919-0.29-1.704-0.843-2.257S39.913,36.498,38.994,36.498z" />
                    <path d="M42.941,34c-1.65,0-3.181-0.857-4.31-2.413c-0.254-0.351-0.254-0.824,0-1.175C39.761,28.857,41.291,28,42.941,28   s3.181,0.857,4.31,2.413c0.254,0.351,0.254,0.824,0,1.175C46.122,33.143,44.592,34,42.941,34z M40.75,31   c1.3,1.299,3.084,1.299,4.384,0C43.833,29.7,42.049,29.7,40.75,31z" />
                    <path d="M46.521,39.001c-0.354,0-0.718-0.029-1.091-0.088c-0.427-0.068-0.762-0.403-0.831-0.831   c-0.302-1.898,0.174-3.586,1.341-4.753c1.167-1.167,2.855-1.644,4.753-1.341c0.427,0.068,0.762,0.403,0.831,0.831   c0.302,1.898-0.174,3.586-1.341,4.753C49.246,38.509,47.971,39.001,46.521,39.001z M49.612,33.9c-0.919,0-1.704,0.29-2.257,0.843   c-0.553,0.553-0.843,1.338-0.843,2.257c0.919,0,1.704-0.29,2.257-0.843C49.322,35.604,49.612,34.819,49.612,33.9z" />
                    <path d="M46.909,28.357c-0.354,0-0.718-0.029-1.091-0.088c-0.427-0.068-0.762-0.403-0.831-0.831   c-0.302-1.899,0.175-3.587,1.342-4.754c1.167-1.167,2.854-1.643,4.753-1.341c0.427,0.068,0.762,0.403,0.831,0.831   c0.302,1.898-0.174,3.586-1.341,4.753C49.633,27.866,48.358,28.357,46.909,28.357z M50,23.256c-0.919,0-1.704,0.29-2.257,0.842   c-0.553,0.554-0.843,1.338-0.843,2.258c0.919,0,1.704-0.29,2.257-0.843C49.71,24.96,50,24.175,50,23.256z" />
                    <path d="M17.08,45c-0.17,0-0.342-0.043-0.499-0.134C11.632,42.008,8.558,36.695,8.558,31c0-3.49,1.108-6.809,3.205-9.597   c0.332-0.441,0.959-0.53,1.4-0.198c0.442,0.332,0.53,0.959,0.198,1.4c-1.834,2.439-2.803,5.342-2.803,8.395   c0,4.983,2.691,9.633,7.023,12.134c0.478,0.276,0.642,0.888,0.366,1.366C17.762,44.821,17.426,45,17.08,45z" />
                    <path d="M13.915,41.599c-0.354,0-0.718-0.029-1.091-0.088c-0.427-0.068-0.762-0.403-0.83-0.831   c-0.302-1.898,0.174-3.586,1.341-4.753c1.167-1.167,2.856-1.643,4.753-1.341c0.427,0.068,0.763,0.403,0.831,0.831   c0.302,1.898-0.174,3.586-1.341,4.753C16.64,41.107,15.365,41.599,13.915,41.599z M17.006,36.498c-0.919,0-1.704,0.29-2.257,0.843   c-0.553,0.553-0.842,1.338-0.843,2.257c0.919,0,1.704-0.29,2.257-0.843C16.717,38.201,17.006,37.417,17.006,36.498z" />
                    <path d="M13.058,34c-1.65,0-3.181-0.857-4.309-2.413c-0.254-0.351-0.254-0.824,0-1.175C9.878,28.857,11.408,28,13.058,28   s3.181,0.857,4.31,2.413c0.254,0.351,0.254,0.824,0,1.175C16.239,33.143,14.708,34,13.058,34z M10.866,31   c1.301,1.299,3.083,1.299,4.384,0C13.95,29.7,12.167,29.7,10.866,31z" />
                    <path d="M9.479,39.001c-1.45,0-2.725-0.492-3.663-1.43c-1.167-1.167-1.643-2.855-1.341-4.753c0.068-0.427,0.403-0.762,0.83-0.831   c1.899-0.303,3.587,0.175,4.753,1.341c1.167,1.167,1.643,2.855,1.341,4.753c-0.068,0.427-0.403,0.762-0.831,0.831   C10.198,38.972,9.833,39.001,9.479,39.001z M6.388,33.9c0,0.919,0.29,1.704,0.843,2.257S8.569,37,9.488,37   c0-0.919-0.29-1.704-0.843-2.257S7.307,33.9,6.388,33.9z" />
                    <path d="M9.091,28.357c-1.45,0-2.725-0.492-3.663-1.43c-1.167-1.167-1.643-2.855-1.341-4.753c0.068-0.427,0.403-0.762,0.83-0.831   c1.898-0.302,3.586,0.174,4.753,1.341c1.167,1.167,1.644,2.855,1.342,4.754c-0.068,0.427-0.403,0.762-0.831,0.831   C9.81,28.328,9.445,28.357,9.091,28.357z M6,23.256c0,0.919,0.29,1.704,0.843,2.257s1.338,0.843,2.257,0.843   c0-0.919-0.29-1.704-0.843-2.258C7.704,23.546,6.919,23.256,6,23.256z" />
                    <path d="M28,18.999c-0.001,0-0.002,0-0.003,0c-0.458-0.001-0.857-0.312-0.968-0.756C27.022,18.212,26.176,15,24,15   c-0.552,0-1-0.448-1-1s0.448-1,1-1c2.176,0,3.022-3.212,3.031-3.245C27.144,9.312,27.543,9.001,28,9.001c0.001,0,0.002,0,0.003,0   c0.458,0.001,0.857,0.312,0.968,0.756C28.978,9.788,29.824,13,32,13c0.552,0,1,0.448,1,1s-0.448,1-1,1   c-2.176,0-3.022,3.212-3.031,3.245C28.856,18.688,28.457,18.999,28,18.999z M26.724,14c0.53,0.442,0.95,0.981,1.276,1.512   c0.326-0.531,0.746-1.07,1.276-1.512c-0.53-0.442-0.95-0.981-1.276-1.512C27.674,13.019,27.254,13.558,26.724,14z" />
                    <path d="M38,23.999c-0.001,0-0.002,0-0.003,0c-0.458-0.001-0.856-0.312-0.968-0.756C37.022,23.212,36.176,20,34,20   c-0.552,0-1-0.448-1-1s0.448-1,1-1c2.176,0,3.022-3.212,3.03-3.245c0.113-0.443,0.513-0.753,0.969-0.753c0.001,0,0.002,0,0.003,0   c0.458,0.001,0.856,0.312,0.968,0.756C38.978,14.788,39.824,18,42,18c0.552,0,1,0.448,1,1s-0.448,1-1,1   c-2.176,0-3.022,3.212-3.03,3.245C38.856,23.688,38.457,23.999,38,23.999z M36.724,19c0.53,0.442,0.95,0.981,1.276,1.512   c0.326-0.531,0.746-1.07,1.276-1.512c-0.53-0.442-0.95-0.981-1.276-1.512C37.674,18.019,37.254,18.558,36.724,19z" />
                    <path d="M18,23.999c-0.001,0-0.002,0-0.003,0c-0.458-0.001-0.857-0.312-0.968-0.756C17.022,23.212,16.176,20,14,20   c-0.552,0-1-0.448-1-1s0.448-1,1-1c2.176,0,3.022-3.212,3.031-3.245c0.113-0.443,0.512-0.753,0.969-0.753c0.001,0,0.002,0,0.003,0   c0.458,0.001,0.857,0.312,0.968,0.756C18.978,14.788,19.824,18,22,18c0.552,0,1,0.448,1,1s-0.448,1-1,1   c-2.176,0-3.022,3.212-3.031,3.245C18.856,23.688,18.457,23.999,18,23.999z M16.724,19c0.53,0.442,0.95,0.981,1.276,1.512   c0.326-0.531,0.746-1.07,1.276-1.512c-0.53-0.442-0.95-0.981-1.276-1.512C17.674,18.019,17.254,18.558,16.724,19z" />                </g>
            </g>
        </g>
    </g>
</svg>
